<?xml version="1.0" encoding="utf-8"?>
<!-- Generator: Adobe Illustrator 23.0.2, SVG Export Plug-In . SVG Version: 6.00 Build 0)  -->
<svg version="1.1"
	 id="svg8" xmlns:cc="http://creativecommons.org/ns#" xmlns:dc="http://purl.org/dc/elements/1.1/" xmlns:osb="http://www.openswatchbook.org/uri/2009/osb" xmlns:rdf="http://www.w3.org/1999/02/22-rdf-syntax-ns#" xmlns:svg="http://www.w3.org/2000/svg"
	 xmlns="http://www.w3.org/2000/svg" xmlns:xlink="http://www.w3.org/1999/xlink" x="0px" y="0px" viewBox="0 0 120.4 120.4"
	 style="enable-background:new 0 0 120.4 120.4;" xml:space="preserve">
<style type="text/css">
	.st0{display:none;}
	.st1{fill:url(#path975_1_);}
	.st2{fill:#00007F;fill-opacity:0.5451;}
	.st3{fill:#00007F;fill-opacity:0.6549;}
	.st4{fill:#F8F8FA;stroke:#FFFFFF;stroke-width:0.2646;}
	.st5{fill:#F8F8FA;stroke:#F5F5F5;stroke-width:0.2646;}
</style>
<g id="layer1" class="st0">
</g>
<g id="layer2">
	
		<linearGradient id="path975_1_" gradientUnits="userSpaceOnUse" x1="-355.8534" y1="16.5554" x2="-379.4169" y2="15.02" gradientTransform="matrix(2.8346 0 0 2.8346 1079.6819 13.726)">
		<stop  offset="0" style="stop-color:#00007F"/>
		<stop  offset="1" style="stop-color:#00007F;stop-opacity:0"/>
	</linearGradient>
	<path id="path975" class="st1" d="M66.3,3.4C58.4,3.6,50.7,7.1,45,12.5C40.6,17,37.7,23.7,39.4,30c2.1,5.3,5.1,10.3,8.3,14.9
		c0.6,0.8,1.3,1.6,2,2.4c-5,2.9-9.6,7.4-10.8,13.3C37.3,67,41.4,74,47.5,76.4c5.2,2.1,10.9,3,16.5,1.9c1.6-0.2,3.1-0.8,4.6-0.9
		c1.4,4.4,2.9,8.9,4.2,13.4c-0.1,3.1,0.5,6.6-1.7,9.2c-2.2,2.5-5.8,1.8-8.6,0.9c-0.5-0.1-1.4-0.4-0.8-1.1c1.9-3.2,3.6-6.9,2.4-10.6
		c-1.4-3.1-5-4.3-8.1-4.3c-4.2-0.2-9.2,0.3-11.8,3.9c-2.3,3.3-1.3,7.6-0.3,11.3c1.9,6.6,5.9,13.1,12.5,15.6
		c6.4,2.4,13.7,1.8,19.9-0.8c4.9-2.3,8.8-6.8,10.4-11.9c1.9-6.1,1.9-12.8-0.9-18.6c-2.4-5-4.9-10-6.8-15.3c3.2-4.7,6.6-9.9,6.1-15.9
		c-0.3-4.2-4.5-7.6-8.7-7c-2.7,0.1-5.1,1.6-7.2,2.9c-0.6-1.4-1.7-2.9-2.1-4.4c2.3-0.9,4.8-1.3,7.1-2.3c6.1-2.4,12.1-7,13.8-13.7
		c0.8-3.8,0.6-7.9-0.6-11.7c-1.8-4.5-5.6-7.9-9.6-10.6C74.6,4.4,70.4,3.4,66.3,3.4L66.3,3.4z M67.4,18.7c2.4-0.1,4.9,1.3,6.4,3.2
		c1.8,3.1,0.3,6.9-1.6,9.6c-2.3,3.3-5.1,6.3-8.3,8.7c-3.4-3.8-5.4-8.9-5.8-13.9c0.1-2.7,2.2-4.8,4.2-6.3
		C63.6,18.6,65.6,18.6,67.4,18.7z M75.6,50.1c2.9,0.1,5.7,2.6,5.5,5.6c0.3,2.9-1.1,5.6-2.9,7.6c-0.8,1.5-1.4,1-1.8-0.4
		c-1.6-3.4-3.6-6.7-4.9-10.3c-0.4-1.3,1.4-1.7,2.3-2.2C74.4,50.3,75,50.1,75.6,50.1z M51.9,51.2c1.4,2.1,2.9,4.2,4.3,6.3
		c-2.4,2.3-4.8,5.8-3.6,9.3c0.5,2.2,2.6,3.9,4.9,3.6c1.6-0.3,2.8-1.8,3-3.4c-0.2-1.9-2.3-2.6-3.8-2.9c0.3-1,1-2.1,1.8-2.7
		c1.8,1.9,2.8,4.3,4.2,6.4c1.2,2.1,2.4,4.1,3.6,6.1c-3.3,1.8-7.4,1.9-11.1,1.2c-4.1-1.2-8.2-3.7-10.3-7.6c-2.1-3.9-0.1-8.6,2.4-11.8
		C48.7,54.1,50.1,52.4,51.9,51.2L51.9,51.2z"/>
	<path id="path977" class="st2" d="M46.9,7.3c-3.7,0.2-7.2,3.1-7.9,6.7c-0.2,0.9-0.1,1.9-0.1,2.8c2.1-4,5.4-7.2,9.3-9.4
		C47.9,7.4,47.4,7.2,46.9,7.3L46.9,7.3z"/>
	<path id="path979" class="st3" d="M44.8,83.8c-2,1.2-2.6,3.9-2.4,6.1c0.8-2.1,2.9-3.4,4.6-4.8C46.6,84.4,45.7,83.5,44.8,83.8
		L44.8,83.8z"/>
</g>
<g id="layer4">
	<path id="path2955" class="st4" d="M44.1,93c0,0,0.3,3.4,3.1,3.3c0,0,2.3,0.6,3.8-2.7c0,0-0.3-2.3,1.8-4c0,0,2.3-1.9,4.3-1.9
		c0,0-0.3-2.4-5.8-1.3c0,0-2.8,0.4-4.9,2.3C46.3,88.7,44.3,90.5,44.1,93L44.1,93z"/>
	<path id="path2957" class="st5" d="M66.5,5.4c-2.6,0.6-3.4,0.9-3.4,0.9c-4.9,1.3-10.6,6.2-10.6,6.2c-5.2,4.2-4.6,7.2-4.6,7.2
		c-0.6,6.9-4.3,5.6-4.3,5.6s-3.4-0.5-1.3-6.4c0,0,2.6-5.8,8.9-9.1C51.3,9.7,58.7,3.9,66.5,5.4z"/>
	<path id="path2963" class="st4" d="M47.3,50.6c0,0-9.8,5.4-7.3,15.9c0,0,1.6,4,1.6-0.7C41.6,65.8,38.9,59.8,47.3,50.6L47.3,50.6z"
		/>
</g>
</svg>
