<?xml version="1.0" encoding="utf-8"?>
<!-- Generator: Adobe Illustrator 23.0.2, SVG Export Plug-In . SVG Version: 6.00 Build 0)  -->
<svg version="1.1"
	 id="svg8" xmlns:cc="http://creativecommons.org/ns#" xmlns:dc="http://purl.org/dc/elements/1.1/" xmlns:osb="http://www.openswatchbook.org/uri/2009/osb" xmlns:rdf="http://www.w3.org/1999/02/22-rdf-syntax-ns#" xmlns:svg="http://www.w3.org/2000/svg"
	 xmlns="http://www.w3.org/2000/svg" xmlns:xlink="http://www.w3.org/1999/xlink" x="0px" y="0px" viewBox="0 0 85.4 85.4"
	 style="enable-background:new 0 0 85.4 85.4;" xml:space="preserve">
<style type="text/css">
	.st0{display:none;}
	.st1{fill:url(#path975_1_);}
	.st2{fill:#00007F;fill-opacity:0.5451;}
	.st3{fill:#00007F;fill-opacity:0.6549;}
	.st4{fill:#F8F8FA;stroke:#FFFFFF;stroke-width:0.2646;}
	.st5{fill:#F8F8FA;stroke:#F5F5F5;stroke-width:0.2646;}
</style>
<g id="layer1" class="st0">
</g>
<g id="layer2">
	
		<linearGradient id="path975_1_" gradientUnits="userSpaceOnUse" x1="-532.6598" y1="304.7966" x2="-549.616" y2="305.9015" gradientTransform="matrix(2.8346 0 0 -2.8346 1561.2644 907.0327)">
		<stop  offset="0" style="stop-color:#00007F"/>
		<stop  offset="1" style="stop-color:#00007F;stop-opacity:0"/>
	</linearGradient>
	<path id="path975" class="st1" d="M48,1.9C42.3,2,36.8,4.5,32.7,8.4c-3.2,3.2-5.3,8.1-4,12.6c1.5,3.8,3.7,7.4,6,10.7
		c0.4,0.6,0.9,1.2,1.4,1.7c-3.6,2.1-6.9,5.3-7.8,9.6c-1.2,4.6,1.8,9.6,6.2,11.4c3.7,1.5,7.8,2.2,11.9,1.4c1.2-0.1,2.2-0.6,3.3-0.6
		c1,3.2,2.1,6.4,3,9.6c-0.1,2.2,0.4,4.7-1.2,6.6c-1.6,1.8-4.2,1.3-6.2,0.6c-0.4-0.1-1-0.3-0.6-0.8c1.4-2.3,2.6-5,1.7-7.6
		c-1-2.2-3.6-3.1-5.8-3.1c-3-0.1-6.6,0.2-8.5,2.8c-1.7,2.4-0.9,5.5-0.2,8.1c1.4,4.7,4.2,9.4,9,11.2c4.6,1.7,9.9,1.3,14.3-0.6
		c3.5-1.7,6.3-4.9,7.5-8.6c1.4-4.4,1.4-9.2-0.6-13.4c-1.7-3.6-3.5-7.2-4.9-11c2.3-3.4,4.7-7.1,4.4-11.4c-0.2-3-3.2-5.5-6.3-5
		c-1.9,0.1-3.7,1.2-5.2,2.1c-0.4-1-1.2-2.1-1.5-3.2c1.7-0.6,3.5-0.9,5.1-1.7c4.4-1.7,8.7-5,9.9-9.9c0.6-2.7,0.4-5.7-0.4-8.4
		c-1.3-3.2-4-5.7-6.9-7.6C54,2.6,51,1.9,48,1.9L48,1.9z M48.8,12.9c1.7-0.1,3.5,0.9,4.6,2.3c1.3,2.2,0.2,5-1.2,6.9
		c-1.7,2.4-3.7,4.5-6,6.3c-2.4-2.7-3.9-6.4-4.2-10c0.1-1.9,1.6-3.5,3-4.5C46.1,12.8,47.5,12.8,48.8,12.9z M54.7,35.5
		c2.1,0.1,4.1,1.9,4,4c0.2,2.1-0.8,4-2.1,5.5c-0.6,1.1-1,0.7-1.3-0.3c-1.2-2.4-2.6-4.8-3.5-7.4c-0.3-0.9,1-1.2,1.7-1.6
		C53.8,35.6,54.3,35.5,54.7,35.5z M37.7,36.3c1,1.5,2.1,3,3.1,4.5c-1.7,1.7-3.5,4.2-2.6,6.7c0.4,1.6,1.9,2.8,3.5,2.6
		c1.2-0.2,2-1.3,2.2-2.4c-0.1-1.4-1.7-1.9-2.7-2.1c0.2-0.7,0.7-1.5,1.3-1.9c1.3,1.4,2,3.1,3,4.6c0.9,1.5,1.7,3,2.6,4.4
		c-2.4,1.3-5.3,1.4-8,0.9c-3-0.9-5.9-2.7-7.4-5.5c-1.5-2.8-0.1-6.2,1.7-8.5C35.4,38.3,36.4,37.1,37.7,36.3L37.7,36.3z"/>
	<path id="path977" class="st2" d="M34.1,4.7c-2.7,0.1-5.2,2.2-5.7,4.8c-0.1,0.6-0.1,1.4-0.1,2c1.5-2.9,3.9-5.2,6.7-6.8
		C34.8,4.7,34.4,4.6,34.1,4.7L34.1,4.7z"/>
	<path id="path979" class="st3" d="M32.5,59.7c-1.4,0.9-1.9,2.8-1.7,4.4c0.6-1.5,2.1-2.4,3.3-3.5C33.8,60.1,33.2,59.5,32.5,59.7
		L32.5,59.7z"/>
</g>
<g id="layer4">
	<path id="path2955" class="st4" d="M32,66.3c0,0,0.2,2.4,2.2,2.4c0,0,1.7,0.4,2.7-1.9c0,0-0.2-1.7,1.3-2.9c0,0,1.7-1.4,3.1-1.4
		c0,0-0.2-1.7-4.2-0.9c0,0-2,0.3-3.5,1.7C33.6,63.2,32.2,64.5,32,66.3L32,66.3z"/>
	<path id="path2957" class="st5" d="M48.2,3.3c-1.9,0.4-2.4,0.6-2.4,0.6c-3.5,0.9-7.6,4.5-7.6,4.5c-3.7,3-3.3,5.2-3.3,5.2
		c-0.4,5-3.1,4-3.1,4s-2.4-0.4-0.9-4.6c0,0,1.9-4.2,6.4-6.5C37.2,6.4,42.6,2.2,48.2,3.3z"/>
	<path id="path2963" class="st4" d="M34.3,35.8c0,0-7.1,3.9-5.3,11.4c0,0,1.2,2.9,1.2-0.5C30.2,46.8,28.3,42.4,34.3,35.8L34.3,35.8z
		"/>
</g>
</svg>
