<?xml version="1.0" encoding="utf-8"?>
<!-- Generator: Adobe Illustrator 23.0.2, SVG Export Plug-In . SVG Version: 6.00 Build 0)  -->
<svg version="1.1"
	 id="svg8" xmlns:cc="http://creativecommons.org/ns#" xmlns:dc="http://purl.org/dc/elements/1.1/" xmlns:osb="http://www.openswatchbook.org/uri/2009/osb" xmlns:rdf="http://www.w3.org/1999/02/22-rdf-syntax-ns#" xmlns:svg="http://www.w3.org/2000/svg"
	 xmlns="http://www.w3.org/2000/svg" xmlns:xlink="http://www.w3.org/1999/xlink" x="0px" y="0px" viewBox="0 0 198.4 198.4"
	 style="enable-background:new 0 0 198.4 198.4;" xml:space="preserve">
<style type="text/css">
	.st0{display:none;}
	.st1{fill:url(#path975_1_);}
	.st2{fill:#00007F;fill-opacity:0.5451;}
	.st3{fill:#00007F;fill-opacity:0.6549;}
	.st4{fill:#F8F8FA;stroke:#FFFFFF;stroke-width:0.2646;}
	.st5{fill:#F8F8FA;stroke:#F5F5F5;stroke-width:0.2646;}
</style>
<g id="layer1" class="st0">
	
		<image style="display:inline;overflow:visible;enable-background:new    ;" width="512" height="512" id="image20" xlink:href="74AC9D8.png"  transform="matrix(0.75 0 0 0.75 115.2036 -74.465)">
	</image>
</g>
<g id="layer2">
	
		<linearGradient id="path975_1_" gradientUnits="userSpaceOnUse" x1="-183.528" y1="544.8502" x2="-207.0915" y2="546.3856" gradientTransform="matrix(2.8346 0 0 -2.8346 630.2049 1644.1382)">
		<stop  offset="0" style="stop-color:#00007F"/>
		<stop  offset="1" style="stop-color:#00007F;stop-opacity:0"/>
	</linearGradient>
	<path id="path975" class="st1" d="M105.3,42.4c-7.9,0.2-15.6,3.7-21.3,9.1c-4.4,4.5-7.3,11.2-5.6,17.5c2.1,5.3,5.1,10.3,8.3,14.9
		c0.6,0.8,1.3,1.6,2,2.4c-5,2.9-9.6,7.4-10.8,13.3c-1.6,6.4,2.5,13.4,8.6,15.8c5.2,2.1,10.9,3,16.5,1.9c1.6-0.2,3.1-0.8,4.6-0.9
		c1.4,4.4,2.9,8.9,4.2,13.4c-0.1,3.1,0.5,6.6-1.7,9.2c-2.2,2.5-5.8,1.8-8.6,0.9c-0.5-0.1-1.4-0.4-0.8-1.1c1.9-3.2,3.6-6.9,2.4-10.6
		c-1.4-3.1-5-4.3-8.1-4.3c-4.2-0.2-9.2,0.3-11.8,3.9c-2.3,3.3-1.3,7.6-0.3,11.3c1.9,6.6,5.9,13.1,12.5,15.6
		c6.4,2.4,13.7,1.8,19.9-0.8c4.9-2.3,8.8-6.8,10.4-11.9c1.9-6.1,1.9-12.8-0.9-18.6c-2.4-5-4.9-10-6.8-15.3c3.2-4.7,6.6-9.9,6.1-15.9
		c-0.3-4.2-4.5-7.6-8.7-7c-2.7,0.1-5.1,1.6-7.2,2.9c-0.6-1.4-1.7-2.9-2.1-4.4c2.3-0.9,4.8-1.3,7.1-2.3c6.1-2.4,12.1-7,13.8-13.7
		c0.8-3.8,0.6-7.9-0.6-11.7c-1.8-4.5-5.6-7.9-9.6-10.6C113.6,43.4,109.4,42.4,105.3,42.4L105.3,42.4z M106.4,57.7
		c2.4-0.1,4.9,1.3,6.4,3.2c1.8,3.1,0.3,6.9-1.6,9.6c-2.3,3.3-5.1,6.3-8.3,8.7c-3.4-3.8-5.4-8.9-5.8-13.9c0.1-2.7,2.2-4.8,4.2-6.3
		C102.6,57.6,104.6,57.6,106.4,57.7z M114.6,89.1c2.9,0.1,5.7,2.6,5.5,5.6c0.3,2.9-1.1,5.6-2.9,7.6c-0.8,1.5-1.4,1-1.8-0.4
		c-1.6-3.4-3.6-6.7-4.9-10.3c-0.4-1.3,1.4-1.7,2.3-2.2C113.4,89.3,114,89.1,114.6,89.1z M90.9,90.2c1.4,2.1,2.9,4.2,4.3,6.3
		c-2.4,2.3-4.8,5.8-3.6,9.3c0.5,2.2,2.6,3.9,4.9,3.6c1.6-0.3,2.8-1.8,3-3.4c-0.2-1.9-2.3-2.6-3.8-2.9c0.3-1,1-2.1,1.8-2.7
		c1.8,1.9,2.8,4.3,4.2,6.4c1.2,2.1,2.4,4.1,3.6,6.1c-3.3,1.8-7.4,1.9-11.1,1.2c-4.1-1.2-8.2-3.7-10.3-7.6c-2.1-3.9-0.1-8.6,2.4-11.8
		C87.7,93.1,89.1,91.4,90.9,90.2L90.9,90.2z"/>
	<path id="path977" class="st2" d="M85.9,46.3c-3.7,0.2-7.2,3.1-7.9,6.7c-0.2,0.9-0.1,1.9-0.1,2.8c2.1-4,5.4-7.2,9.3-9.4
		C86.9,46.4,86.4,46.2,85.9,46.3L85.9,46.3z"/>
	<path id="path979" class="st3" d="M83.8,122.8c-2,1.2-2.6,3.9-2.4,6.1c0.8-2.1,2.9-3.4,4.6-4.8C85.6,123.4,84.7,122.5,83.8,122.8
		L83.8,122.8z"/>
</g>
<g id="layer4">
	<path id="path2955" class="st4" d="M83.1,132c0,0,0.3,3.4,3.1,3.3c0,0,2.3,0.6,3.8-2.7c0,0-0.3-2.3,1.8-4c0,0,2.3-1.9,4.3-1.9
		c0,0-0.3-2.4-5.8-1.3c0,0-2.8,0.4-4.9,2.3C85.3,127.7,83.3,129.5,83.1,132L83.1,132z"/>
	<path id="path2957" class="st5" d="M105.5,44.4c-2.6,0.6-3.4,0.9-3.4,0.9c-4.9,1.3-10.6,6.2-10.6,6.2c-5.2,4.2-4.6,7.2-4.6,7.2
		c-0.6,6.9-4.3,5.6-4.3,5.6s-3.4-0.5-1.3-6.4c0,0,2.6-5.8,8.9-9.1C90.3,48.7,97.7,42.9,105.5,44.4z"/>
	<path id="path2963" class="st4" d="M86.3,89.6c0,0-9.8,5.4-7.3,15.9c0,0,1.6,4,1.6-0.7C80.6,104.8,77.9,98.8,86.3,89.6L86.3,89.6z"
		/>
</g>
</svg>
